<svg width="705" height="550" viewBox="0 0 705 550" fill="none" xmlns="http://www.w3.org/2000/svg">
    <g clip-path="url(#clip0_0_1)">
    <path d="M179.786 293.742C179.786 264.091 191.131 236.215 211.73 215.249C232.329 194.283 259.718 182.736 288.85 182.736H289.572C290.397 182.736 291.064 183.416 291.064 184.255V226.256C291.064 227.096 290.397 227.775 289.572 227.775H281.844C275.764 227.775 270.817 232.81 270.817 238.999C270.817 245.187 275.764 250.222 281.844 250.222H289.572C290.397 250.222 291.064 250.901 291.064 251.741V293.742C291.064 294.582 290.397 295.261 289.572 295.261H181.278C180.454 295.261 179.786 294.582 179.786 293.742ZM288.08 253.26H281.844C274.119 253.26 267.833 246.862 267.833 238.999C267.833 231.136 274.119 224.738 281.844 224.738H288.08V185.776C230.439 186.195 183.58 233.65 182.779 292.224H288.08V253.26Z" fill="white"/>
    <path d="M331.466 410.407C330.237 407.022 327.016 404.751 323.456 404.751H289.574C288.749 404.751 288.082 404.072 288.082 403.232V361.231C288.082 360.391 288.749 359.712 289.574 359.712H295.191C298.243 359.712 301.188 358.407 303.268 356.129C305.378 353.822 306.415 350.809 306.189 347.647C305.774 341.825 300.835 337.265 294.943 337.265H289.576C288.752 337.265 288.084 336.583 288.084 335.746V293.745C288.084 292.905 288.752 292.226 289.576 292.226H329.712V288.282C329.712 280.702 335.409 274.344 342.682 273.807C346.624 273.513 350.383 274.858 353.265 277.584C356.107 280.274 357.737 284.08 357.737 288.028V292.226H397.872C398.697 292.226 399.364 292.905 399.364 293.745V334.227H403.241C410.687 334.227 416.933 340.026 417.463 347.426C417.749 351.439 416.43 355.265 413.752 358.198C411.109 361.09 407.368 362.749 403.491 362.749H399.366V403.232C399.366 404.072 398.699 404.751 397.874 404.751H367.793C363.093 404.751 359.255 408.59 359.24 413.322V413.409C359.24 424.087 365.095 433.651 374.523 438.366C375.146 438.677 375.472 439.386 375.315 440.074C375.157 440.762 374.553 441.25 373.857 441.25C346.74 441.25 335.661 421.929 331.471 410.409L331.466 410.407ZM396.376 361.228C396.376 360.389 397.043 359.71 397.868 359.71H403.484C406.536 359.71 409.481 358.405 411.56 356.127C413.669 353.82 414.706 350.807 414.481 347.644C414.065 341.823 409.127 337.263 403.237 337.263H397.868C397.043 337.263 396.376 336.581 396.376 335.744V295.261H356.24C355.415 295.261 354.748 294.582 354.748 293.742V288.026C354.748 284.919 353.466 281.922 351.228 279.807C348.961 277.66 345.999 276.604 342.894 276.834C337.175 277.257 332.694 282.283 332.694 288.278V293.74C332.694 294.58 332.027 295.259 331.202 295.259H291.066V334.223H294.941C302.387 334.223 308.633 340.022 309.163 347.422C309.449 351.435 308.13 355.26 305.452 358.193C302.809 361.086 299.068 362.745 295.191 362.745H291.069V401.709H323.459C328.263 401.709 332.606 404.78 334.269 409.349C337.877 419.268 346.939 435.375 368.099 437.874C360.675 432.11 356.253 423.178 356.253 413.404V413.291C356.278 406.904 361.452 401.709 367.793 401.709H396.38V361.226L396.376 361.228Z" fill="white"/>
    <path d="M331.466 410.407C330.237 407.022 327.016 404.751 323.456 404.751H289.574C288.749 404.751 288.082 404.072 288.082 403.232V361.231C288.082 360.391 288.749 359.712 289.574 359.712H295.191C298.243 359.712 301.188 358.407 303.268 356.129C305.378 353.822 306.415 350.809 306.189 347.647C305.774 341.825 300.835 337.265 294.943 337.265H289.576C288.752 337.265 288.084 336.583 288.084 335.746V293.745C288.084 292.905 288.752 292.226 289.576 292.226H329.712V288.282C329.712 280.702 335.409 274.344 342.682 273.807C346.624 273.513 350.383 274.858 353.265 277.584C356.107 280.274 357.737 284.08 357.737 288.028V292.226H397.872C398.697 292.226 399.364 292.905 399.364 293.745V334.227H403.241C410.687 334.227 416.933 340.026 417.463 347.426C417.749 351.439 416.43 355.265 413.752 358.198C411.109 361.09 407.368 362.749 403.491 362.749H399.366V403.232C399.366 404.072 398.699 404.751 397.874 404.751H367.793C363.093 404.751 359.255 408.59 359.24 413.322V413.409C359.24 424.087 365.095 433.651 374.523 438.366C375.146 438.677 375.472 439.386 375.315 440.074C375.157 440.762 374.553 441.25 373.857 441.25C346.74 441.25 335.661 421.929 331.471 410.409L331.466 410.407ZM396.376 361.228C396.376 360.389 397.043 359.71 397.868 359.71H403.484C406.536 359.71 409.481 358.405 411.56 356.127C413.669 353.82 414.706 350.807 414.481 347.644C414.065 341.823 409.127 337.263 403.237 337.263H397.868C397.043 337.263 396.376 336.581 396.376 335.744V295.261H356.24C355.415 295.261 354.748 294.582 354.748 293.742V288.026C354.748 284.919 353.466 281.922 351.228 279.807C348.961 277.66 345.999 276.604 342.894 276.834C337.175 277.257 332.694 282.283 332.694 288.278V293.74C332.694 294.58 332.027 295.259 331.202 295.259H291.066V334.223H294.941C302.387 334.223 308.633 340.022 309.163 347.422C309.449 351.435 308.13 355.26 305.452 358.193C302.809 361.086 299.068 362.745 295.191 362.745H291.069V401.709H323.459C328.263 401.709 332.606 404.78 334.269 409.349C337.877 419.268 346.939 435.375 368.099 437.874C360.675 432.11 356.253 423.178 356.253 413.404V413.291C356.278 406.904 361.452 401.709 367.793 401.709H396.38V361.226L396.376 361.228Z" fill="white"/>
    <path d="M281.846 226.256H289.574V184.255H397.868V226.256H392.501C385.904 226.256 380.246 231.351 379.767 238.048C379.235 245.514 385.029 251.741 392.251 251.741H397.868V293.742H356.24V288.28C356.24 281.566 351.234 275.807 344.655 275.319C337.319 274.776 331.202 280.675 331.202 288.026V293.742H289.574V251.741H281.846C274.933 251.741 269.327 246.036 269.327 238.999C269.327 231.962 274.933 226.256 281.846 226.256Z" fill="#A2D5FB"/>
    <path d="M288.082 293.742V253.26H281.846C274.121 253.26 267.835 246.862 267.835 238.999C267.835 231.136 274.121 224.738 281.846 224.738H288.082V184.255C288.082 183.416 288.749 182.736 289.574 182.736H397.868C398.693 182.736 399.36 183.416 399.36 184.255V226.256C399.36 227.096 398.693 227.775 397.868 227.775H392.501C386.611 227.775 381.671 232.336 381.255 238.157C381.029 241.319 382.067 244.332 384.176 246.639C386.256 248.915 389.199 250.222 392.251 250.222H397.868C398.693 250.222 399.36 250.901 399.36 251.741V293.742C399.36 294.582 398.693 295.261 397.868 295.261H356.24C355.415 295.261 354.748 294.582 354.748 293.742V288.28C354.748 282.285 350.267 277.257 344.548 276.836C341.443 276.606 338.481 277.662 336.214 279.809C333.978 281.927 332.694 284.922 332.694 288.028V293.745C332.694 294.584 332.027 295.263 331.202 295.263H289.574C288.749 295.263 288.082 294.584 288.082 293.745V293.742ZM329.709 288.026C329.709 284.078 331.34 280.272 334.182 277.582C337.063 274.854 340.818 273.513 344.765 273.805C352.037 274.342 357.732 280.7 357.732 288.28V292.224H396.376V253.26H392.254C388.374 253.26 384.635 251.601 381.992 248.708C379.312 245.775 377.995 241.949 378.281 237.937C378.809 230.534 385.055 224.738 392.503 224.738H396.378V185.774H291.069V226.256C291.069 227.096 290.401 227.775 289.576 227.775H281.849C275.768 227.775 270.821 232.81 270.821 238.999C270.821 245.187 275.768 250.222 281.849 250.222H289.576C290.401 250.222 291.069 250.901 291.069 251.741V292.224H329.712V288.026H329.709Z" fill="white"/>
    <path d="M403.688 198.367L408.974 199.318L416.159 157.958L416.87 158.085C475.373 168.614 514.414 225.419 504.072 284.964L463.079 277.587L462.145 282.967C460.996 289.578 455.082 294.364 448.52 293.676C441.204 292.91 436.187 286.018 437.445 278.778L438.423 273.151L397.43 265.773L404.615 224.413L399.086 223.417C391.973 222.137 387.333 214.98 389.134 207.72C390.748 201.211 397.194 197.196 403.69 198.365L403.688 198.367Z" fill="#FBCB84"/>
    <path d="M448.367 295.188C444.433 294.776 440.963 292.79 438.592 289.592C436.253 286.439 435.301 282.401 435.975 278.513L436.692 274.38L397.17 267.267C396.358 267.12 395.818 266.334 395.96 265.508L402.885 225.642L398.824 224.912C395.004 224.224 391.606 221.928 389.497 218.612C387.359 215.249 386.716 211.25 387.685 207.348C389.47 200.153 396.612 195.548 403.948 196.871L407.764 197.557L414.688 157.691C414.758 157.294 414.979 156.943 415.303 156.711C415.627 156.479 416.027 156.39 416.419 156.459L417.13 156.586C445.818 161.748 470.813 177.973 487.511 202.269C504.21 226.566 510.614 256.026 505.54 285.225C505.395 286.051 504.619 286.601 503.811 286.456L464.289 279.344L463.615 283.227C462.401 290.211 456.462 295.257 449.763 295.255C449.301 295.255 448.835 295.23 448.369 295.181L448.367 295.188ZM463.339 276.092L502.851 283.203C512.082 225.382 474.058 170.348 417.369 159.719L410.444 199.581C410.302 200.407 409.527 200.957 408.715 200.812L403.429 199.861C397.627 198.817 391.984 202.433 390.58 208.092C389.816 211.167 390.324 214.316 392.004 216.962C393.663 219.572 396.338 221.38 399.345 221.921L404.873 222.916C405.685 223.063 406.226 223.849 406.083 224.676L399.159 264.541L438.681 271.654C439.493 271.801 440.033 272.587 439.891 273.413L438.913 279.041C438.381 282.101 439.132 285.278 440.972 287.759C442.838 290.275 445.571 291.839 448.671 292.164C454.382 292.763 459.648 288.605 460.674 282.702L461.609 277.322C461.735 276.584 462.366 276.068 463.077 276.068C463.164 276.068 463.249 276.075 463.339 276.092Z" fill="white"/>
    <path d="M222.908 293.742V288.279C222.908 281.565 227.914 275.806 234.493 275.319C241.829 274.778 247.947 280.674 247.947 288.025V293.742H289.574V335.743H294.941C301.538 335.743 307.196 340.838 307.675 347.535C308.207 355.001 302.413 361.228 295.191 361.228H289.574V403.229H288.852C229.441 403.229 181.278 354.209 181.278 293.74H222.906L222.908 293.742Z" fill="#A5E3E0"/>
    <path d="M211.732 372.236C191.133 351.27 179.788 323.393 179.788 293.742C179.788 292.903 180.456 292.223 181.281 292.223H221.416V288.28C221.416 280.699 227.113 274.342 234.386 273.805C238.329 273.513 242.087 274.856 244.969 277.584C247.811 280.274 249.441 284.08 249.441 288.028V292.226H289.576C290.401 292.226 291.069 292.905 291.069 293.744V334.227H294.943C302.391 334.227 308.638 340.026 309.165 347.426C309.452 351.439 308.132 355.265 305.454 358.197C302.811 361.09 299.07 362.749 295.193 362.749H291.071V403.232C291.071 404.071 290.403 404.751 289.579 404.751H288.857C259.724 404.751 232.336 393.204 211.737 372.238L211.732 372.236ZM247.947 295.261C247.122 295.261 246.455 294.582 246.455 293.742V288.026C246.455 284.919 245.172 281.922 242.934 279.806C240.667 277.66 237.705 276.604 234.6 276.833C228.881 277.257 224.4 282.283 224.4 288.277V293.74C224.4 294.58 223.733 295.259 222.908 295.259H182.784C183.585 353.833 230.443 401.288 288.084 401.706V361.226C288.084 360.386 288.752 359.707 289.576 359.707H295.193C298.245 359.707 301.19 358.402 303.271 356.124C305.38 353.817 306.417 350.804 306.191 347.642C305.776 341.821 300.838 337.26 294.946 337.26H289.579C288.754 337.26 288.086 336.579 288.086 335.741V295.259H247.951L247.947 295.261Z" fill="white"/>
    <path d="M403.237 335.744H397.87V293.742H439.497V299.205C439.497 305.919 444.503 311.678 451.082 312.165C458.419 312.706 464.536 306.81 464.536 299.459V293.742H506.163C506.163 354.211 458.001 403.232 398.59 403.232H397.868V361.23H403.484C410.706 361.23 416.502 355.004 415.968 347.537C415.491 340.841 409.831 335.746 403.235 335.746L403.237 335.744Z" fill="#D29FFA"/>
    <path d="M396.375 403.232V361.231C396.375 360.391 397.043 359.712 397.868 359.712H403.484C406.536 359.712 409.481 358.407 411.56 356.129C413.669 353.822 414.706 350.809 414.481 347.647C414.065 341.825 409.127 337.265 403.237 337.265H397.868C397.043 337.265 396.375 336.583 396.375 335.746V293.745C396.375 292.905 397.043 292.226 397.868 292.226H439.495C440.32 292.226 440.987 292.905 440.987 293.745V299.207C440.987 305.202 445.468 310.23 451.187 310.651C454.294 310.883 457.255 309.825 459.521 307.678C461.757 305.56 463.042 302.565 463.042 299.459V293.742C463.042 292.903 463.709 292.224 464.534 292.224H506.161C506.986 292.224 507.653 292.903 507.653 293.742C507.653 323.393 496.309 351.27 475.71 372.236C455.11 393.202 427.722 404.748 398.59 404.748H397.868C397.043 404.748 396.375 404.069 396.375 403.23V403.232ZM466.026 295.261V299.457C466.026 303.405 464.396 307.211 461.554 309.901C458.672 312.629 454.907 313.974 450.971 313.678C443.698 313.141 438.003 306.783 438.003 299.203V295.259H399.36V334.223H403.235C410.682 334.223 416.929 340.022 417.456 347.422C417.743 351.434 416.423 355.26 413.745 358.193C411.102 361.086 407.361 362.745 403.484 362.745H399.36V401.707C457.001 401.288 503.86 353.833 504.66 295.259H466.028L466.026 295.261Z" fill="white"/>
    <path d="M511.211 111.7C511.271 111.7 511.332 111.695 511.392 111.689C512.246 111.593 512.859 110.838 512.761 110.005L511.46 99.0999C511.282 85.7341 503.944 73.4639 492.301 67.066C491.917 66.8545 491.531 66.6496 491.138 66.4514L462.809 52.01C460.215 50.6873 457.265 50.4779 454.502 51.4132C451.739 52.3507 449.561 54.2993 448.368 56.9047C446.355 61.3073 447.806 66.5472 451.821 69.362L452.064 69.5312L439.392 68.0971C436.488 67.7697 433.654 68.6004 431.417 70.4398C429.182 72.2792 427.863 74.8602 427.71 77.7084C427.45 82.5229 430.731 86.9076 435.516 88.1324L446.259 90.8871C447.089 91.1009 447.943 90.6154 448.163 89.8048C448.382 88.9942 447.884 88.1636 447.052 87.9498L436.309 85.1952C432.948 84.3334 430.642 81.2536 430.825 77.8687C430.935 75.8667 431.858 74.054 433.43 72.7602C435 71.4686 436.988 70.8829 439.033 71.1145L457.669 73.2212C458.375 73.3013 459.045 72.9072 459.303 72.2614C459.559 71.6156 459.335 70.8829 458.759 70.4799L453.645 66.8946C450.823 64.9171 449.801 61.2338 451.218 58.1407C452.054 56.3102 453.585 54.9406 455.528 54.2815C457.473 53.6223 459.543 53.7715 461.367 54.7001L489.698 69.1415C490.062 69.3263 490.418 69.5156 490.775 69.7116C501.476 75.5928 508.211 86.8965 508.35 99.2135C508.35 99.2669 508.355 99.3203 508.359 99.3716L509.669 110.355C509.76 111.127 510.434 111.697 511.216 111.697L511.211 111.7Z" fill="#DBF0FF"/>
    <path d="M705 149.834C689.127 160.151 679.557 167.028 679.353 167.172C635.039 199.547 594.463 219.776 558.75 227.301C528.725 233.625 510.622 228.962 504.673 227.427C504.612 227.412 504.55 227.401 504.488 227.392L468.528 222.539C464.746 222.03 462.077 218.729 462.45 215.026C462.781 211.755 465.457 209.149 468.814 208.831L500.708 205.813C500.75 205.809 500.793 205.804 500.834 205.795C507.578 204.609 511.837 197.992 511.191 189.706C510.521 181.126 504.392 172.325 492.21 172.005C481.458 171.419 471.22 176.167 464.879 184.707L455.352 197.536C453.261 200.353 449.287 201.061 446.309 199.15C443.318 197.231 442.427 193.263 444.326 190.303L459.39 166.814C459.417 166.771 459.44 166.729 459.463 166.685C462.127 161.465 466.933 157.476 472.644 155.742L491.037 150.154C491.526 150.005 491.908 149.633 492.061 149.157C492.214 148.68 492.116 148.161 491.801 147.769L479.465 132.399C473.439 124.89 464.027 120.942 454.292 121.833L429.991 124.057C426.538 124.374 423.277 122.254 422.255 119.016C421.652 117.101 421.881 115.087 422.9 113.346C423.919 111.607 425.583 110.391 427.582 109.923L458.675 102.659C459.072 102.566 459.47 102.479 459.87 102.399C470.283 100.301 481.437 103.214 489.701 110.191C493.067 113.032 497.07 116.343 501.236 119.354L523.341 135.33C534.456 143.365 548.48 146.843 561.814 144.872L562.004 144.845C562.404 144.792 563.071 144.703 563.883 144.471C607.994 131.909 643.659 101.811 678.147 72.7008C686.988 65.2385 695.889 57.7272 704.993 50.4475V46.5215C695.176 54.3112 685.606 62.3881 676.106 70.4071C640.293 100.633 606.465 129.181 563.007 141.559C562.418 141.726 561.933 141.79 561.581 141.837L561.348 141.87C548.828 143.719 535.654 140.447 525.199 132.891L503.094 116.916C499.013 113.965 495.066 110.701 491.744 107.897C482.751 100.303 470.596 97.1387 459.239 99.4258C458.809 99.5126 458.378 99.6061 457.948 99.7063L426.856 106.97C424.01 107.636 421.643 109.367 420.192 111.843C418.741 114.319 418.416 117.183 419.273 119.909C420.724 124.516 425.352 127.538 430.279 127.084L454.58 124.859C463.259 124.064 471.638 127.585 477.006 134.272L487.95 147.912L471.712 152.844C465.217 154.817 459.749 159.345 456.7 165.268L441.677 188.695C438.889 193.042 440.197 198.872 444.591 201.689C448.967 204.495 454.801 203.455 457.872 199.317L467.399 186.488C473.115 178.79 482.345 174.512 492.075 175.042C502.361 175.314 507.514 182.718 508.076 189.938C508.501 195.38 506.257 201.714 500.334 202.796L468.505 205.807C463.67 206.263 459.815 210.015 459.34 214.728C458.8 220.059 462.646 224.813 468.092 225.548L503.958 230.389C549.493 242.076 610.782 221.063 681.207 169.611C681.396 169.475 690.233 163.126 704.991 153.49V149.836L705 149.834Z" fill="#DBF0FF"/>
    <path d="M509.785 98.1894C509.938 98.1894 510.094 98.1671 510.247 98.1204C511.069 97.8732 511.529 97.0225 511.275 96.2208C508.119 86.2777 499.669 78.7642 489.218 76.6153L458.172 70.2308C457.329 70.0593 456.504 70.5826 456.325 71.4043C456.147 72.2261 456.686 73.03 457.53 73.2037L488.576 79.5882C497.921 81.51 505.478 88.2285 508.298 97.1183C508.505 97.7707 509.12 98.1894 509.785 98.1894Z" fill="#DBF0FF"/>
    <path d="M219.922 213.851L192.203 207.905C192.995 207.542 193.75 207.083 194.454 206.531C196.808 204.685 198.314 202.015 198.694 199.015C199.257 194.588 197.213 190.417 193.778 188.108C194.472 187.759 195.137 187.329 195.756 186.823C198.027 184.97 199.438 182.325 199.731 179.374C200.243 174.197 197.045 169.436 192.152 167.828C197.447 166.948 201.342 162.203 201.158 156.651L201.134 155.918C200.983 151.384 198.171 147.478 193.971 145.966C191.953 145.24 187.842 143.624 181.751 141.161C156.242 130.848 134.54 127.739 117.249 131.915C117.139 131.939 117.01 131.968 116.881 131.995C107.189 133.961 94.1311 131.556 77.6014 128.508C56.42 124.599 30.038 119.74 0 122.771V125.864C29.8346 122.793 56.0459 127.619 77.0675 131.496C93.9102 134.6 107.215 137.054 117.463 134.972C117.614 134.941 117.763 134.908 117.912 134.874C134.625 130.837 155.721 133.903 180.648 143.98C186.774 146.456 190.921 148.086 192.973 148.826C196.008 149.919 198.04 152.741 198.15 156.016L198.174 156.749C198.314 160.98 195.176 164.563 191.03 164.904L181.941 165.652C181.202 165.712 180.618 166.318 180.572 167.071C180.526 167.823 181.031 168.498 181.758 168.652L190.35 170.473C194.338 171.32 197.156 175.092 196.762 179.063C196.55 181.196 195.531 183.109 193.89 184.447C192.249 185.788 190.192 186.385 188.107 186.131L181.3 185.304C180.48 185.204 179.742 185.797 179.642 186.625C179.541 187.453 180.117 188.211 180.931 188.317L188.702 189.34C193.154 189.925 196.307 194.087 195.734 198.619C195.456 200.815 194.353 202.768 192.632 204.119C190.91 205.471 188.774 206.059 186.617 205.776C186.595 205.774 186.571 205.772 186.549 205.77L179.41 205.168C178.62 205.104 177.924 205.669 177.811 206.462C177.697 207.255 178.209 208.003 178.979 208.168L219.287 216.815C223.011 217.661 225.464 221.222 224.971 225.09C224.47 229.032 221.022 231.893 217.134 231.61C216.675 231.564 167.341 226.682 149.026 224.649C148.593 224.602 148.164 224.747 147.847 225.048L142.552 230.069C133.571 238.585 125.491 238.006 110.53 227.771L105.791 224.42C105.773 224.406 105.756 224.395 105.738 224.384C96.411 218.369 86.9307 216.069 79.3145 214.221L78.7238 214.078C56.4879 208.676 33.856 207.861 11.4625 211.653C7.65336 212.303 3.83106 213.087 0 214.005V217.189C26.1763 210.842 52.2652 210.776 78.0346 217.035L78.6253 217.178C86.4034 219.064 95.2185 221.204 104.117 226.934L108.847 230.281C124.887 241.253 134.571 241.794 144.587 232.294L149.381 227.747C168.221 229.822 216.39 234.59 216.883 234.639C222.387 235.042 227.227 231.02 227.932 225.482C228.621 220.044 225.177 215.042 219.919 213.849L219.922 213.851Z" fill="#A2D5FB"/>
    <path d="M183.458 550C225.916 496.733 239.611 451.019 239.611 451.019L277.068 363.502C278.593 359.939 277.099 355.784 273.675 354.067L272.745 353.601C269.312 351.88 265.155 353.212 263.315 356.628L244.439 392.376L260.825 335.918C261.844 332.35 260.061 328.571 256.685 327.155C253.088 325.645 248.964 327.34 247.404 330.969L225.308 382.426L238.904 328.678C239.886 324.799 237.602 320.841 233.795 319.824L232.362 319.441C228.921 318.521 225.339 320.316 223.956 323.654L203.829 373.726L213.55 327.714C214.423 323.692 211.846 319.732 207.866 318.984L206.86 318.795C203.247 318.116 199.718 320.332 198.694 323.921L175.095 406.557L155.688 380.32C153.529 377.4 149.527 376.665 146.501 378.629C143.784 380.395 142.637 383.845 143.745 386.927L156.404 422.163C160.371 433.206 159.511 445.449 154.037 455.804C147.42 468.324 138.929 479.719 128.832 489.542C112.409 505.518 84.5327 529.813 49.0314 550H183.46H183.458Z" fill="#3865DB"/>
    <path d="M319.167 491.373C319.339 491.373 319.517 491.342 319.689 491.278C320.462 490.984 320.853 490.109 320.565 489.322L310.977 463.197C310.688 462.41 309.826 462.014 309.056 462.306C308.284 462.6 307.892 463.475 308.181 464.261L317.768 490.387C317.992 490.997 318.563 491.376 319.167 491.376V491.373Z" fill="white"/>
    <path d="M309.837 492.892C310.01 492.892 310.187 492.861 310.36 492.796C311.132 492.502 311.524 491.627 311.235 490.841L301.648 464.715C301.359 463.929 300.497 463.53 299.727 463.824C298.954 464.118 298.563 464.993 298.852 465.779L308.439 491.905C308.662 492.516 309.233 492.894 309.837 492.894V492.892Z" fill="white"/>
    <path d="M295.423 476.417C295.502 476.417 295.581 476.411 295.662 476.397L322.704 471.999C323.518 471.868 324.072 471.088 323.943 470.26C323.814 469.432 323.046 468.868 322.234 468.999L295.191 473.398C294.377 473.529 293.824 474.308 293.953 475.137C294.071 475.883 294.703 476.415 295.425 476.415L295.423 476.417Z" fill="white"/>
    <path d="M296.946 486.12C297.025 486.12 297.104 486.113 297.184 486.1L324.229 481.702C325.043 481.57 325.597 480.791 325.468 479.963C325.337 479.134 324.571 478.569 323.759 478.702L296.714 483.1C295.9 483.232 295.347 484.011 295.476 484.839C295.594 485.586 296.226 486.118 296.948 486.118L296.946 486.12Z" fill="white"/>
    <path d="M319.167 491.373C319.339 491.373 319.517 491.342 319.689 491.278C320.462 490.984 320.853 490.109 320.565 489.322L310.977 463.197C310.688 462.41 309.826 462.014 309.056 462.306C308.284 462.6 307.892 463.475 308.181 464.261L317.768 490.387C317.992 490.997 318.563 491.376 319.167 491.376V491.373Z" fill="#E4DBFF"/>
    <path d="M309.837 492.892C310.01 492.892 310.187 492.861 310.36 492.796C311.132 492.502 311.524 491.627 311.235 490.841L301.648 464.715C301.359 463.929 300.497 463.53 299.727 463.824C298.954 464.118 298.563 464.993 298.852 465.779L308.439 491.905C308.662 492.516 309.233 492.894 309.837 492.894V492.892Z" fill="#E4DBFF"/>
    <path d="M295.423 476.417C295.502 476.417 295.581 476.411 295.662 476.397L322.704 471.999C323.518 471.868 324.072 471.088 323.943 470.26C323.814 469.432 323.046 468.868 322.234 468.999L295.191 473.398C294.377 473.529 293.824 474.308 293.953 475.137C294.071 475.883 294.703 476.415 295.425 476.415L295.423 476.417Z" fill="#E4DBFF"/>
    <path d="M296.946 486.12C297.025 486.12 297.104 486.113 297.184 486.1L324.229 481.702C325.043 481.57 325.597 480.791 325.468 479.963C325.337 479.134 324.571 478.569 323.759 478.702L296.714 483.1C295.9 483.232 295.347 484.011 295.476 484.839C295.594 485.586 296.226 486.118 296.948 486.118L296.946 486.12Z" fill="#E4DBFF"/>
    <path d="M119.29 297.965C124.205 292.962 124.205 284.85 119.29 279.847C114.374 274.844 106.404 274.844 101.489 279.847C96.5732 284.85 96.5733 292.962 101.489 297.965C106.404 302.968 114.374 302.968 119.29 297.965Z" fill="#A5E3E0"/>
    <path d="M96.3103 288.905C96.3103 281.004 102.627 274.575 110.39 274.575C118.152 274.575 124.469 281.004 124.469 288.905C124.469 296.806 118.152 303.235 110.39 303.235C102.627 303.235 96.3103 296.806 96.3103 288.905ZM99.2946 288.905C99.2946 295.132 104.272 300.198 110.39 300.198C116.507 300.198 121.485 295.132 121.485 288.905C121.485 282.679 116.507 277.613 110.39 277.613C104.272 277.613 99.2946 282.679 99.2946 288.905Z" fill="#DBF0FF"/>
    <path d="M615.353 356.767L594.88 333.562C594.524 333.157 594.405 332.589 594.574 332.073C594.742 331.556 595.169 331.169 595.692 331.062L625.15 324.929C625.669 324.82 626.203 325 626.557 325.399C626.911 325.797 627.032 326.356 626.874 326.868L617.888 356.205C617.729 356.727 617.306 357.121 616.781 357.237C616.676 357.261 616.569 357.272 616.464 357.272C616.046 357.272 615.639 357.092 615.353 356.769V356.767ZM598.84 333.505L615.821 352.749L623.273 328.418L598.84 333.505Z" fill="white"/>
    <path d="M479.838 458.323C477.74 456.313 476.441 453.709 475.983 450.961C473.489 450.765 471.034 449.835 468.949 448.153C466.085 445.842 464.346 442.537 464.055 438.845C463.768 435.204 464.989 431.57 467.409 428.873C467.965 428.254 468.91 428.209 469.518 428.775C470.126 429.34 470.17 430.3 469.614 430.922C467.724 433.028 466.807 435.756 467.03 438.6C467.256 441.441 468.595 443.989 470.802 445.77C472.297 446.975 474.038 447.679 475.821 447.89C475.966 445.479 476.751 443.083 478.204 440.998C478.351 440.789 478.502 440.586 478.655 440.393C478.677 440.366 478.698 440.341 478.72 440.315L479.178 439.809C480.079 438.805 481.309 438.219 482.643 438.157C483.98 438.097 485.256 438.566 486.242 439.484C488.277 441.377 488.422 444.601 486.577 446.657L486.181 447.111C486.159 447.136 486.137 447.16 486.113 447.185C484.114 449.2 481.611 450.425 478.998 450.839C479.405 452.807 480.377 454.658 481.888 456.108C483.855 457.992 486.422 458.974 489.12 458.869C491.817 458.767 494.305 457.593 496.125 455.564C496.681 454.945 497.626 454.901 498.234 455.466C498.843 456.032 498.884 456.992 498.331 457.613C495.968 460.245 492.736 461.771 489.236 461.904C489.067 461.911 488.901 461.913 488.735 461.913C485.418 461.913 482.278 460.646 479.847 458.317L479.838 458.323ZM484.354 444.63C484.717 444.225 484.903 443.702 484.879 443.154C484.855 442.606 484.623 442.101 484.225 441.731C483.827 441.361 483.313 441.172 482.775 441.196C482.236 441.221 481.74 441.457 481.374 441.867L480.95 442.337C480.845 442.472 480.74 442.613 480.639 442.76C479.574 444.287 478.974 446.029 478.819 447.795C480.711 447.436 482.516 446.523 483.978 445.065L484.356 444.63H484.354Z" fill="white"/>
    <path d="M251.296 125.652C248.769 122.815 247.481 119.15 247.664 115.326C247.848 111.503 249.485 107.982 252.272 105.412C258.024 100.106 266.947 100.551 272.161 106.405C272.425 106.704 272.565 107.098 272.546 107.499C272.526 107.902 272.351 108.278 272.058 108.55L253.406 125.759C253.119 126.022 252.762 126.154 252.404 126.154C251.997 126.154 251.592 125.987 251.296 125.655V125.652ZM254.276 107.661C252.08 109.688 250.791 112.463 250.647 115.476C250.526 117.976 251.207 120.393 252.579 122.421L268.872 107.39C264.695 103.807 258.436 103.827 254.276 107.664V107.661Z" fill="white"/>
    </g>
    <g filter="url(#filter0_d_0_1)">
    <ellipse cx="675.296" cy="38.2967" rx="3.29624" ry="3.29673" fill="white"/>
    </g>
    <ellipse opacity="0.5" cx="675.296" cy="52.9491" rx="3.29624" ry="3.29673" fill="white"/>
    <ellipse opacity="0.5" cx="675.296" cy="67.6014" rx="3.29624" ry="3.29673" fill="white"/>
    <defs>
    <filter id="filter0_d_0_1" x="664" y="30" width="22.5925" height="22.5938" filterUnits="userSpaceOnUse" color-interpolation-filters="sRGB">
    <feFlood flood-opacity="0" result="BackgroundImageFix"/>
    <feColorMatrix in="SourceAlpha" type="matrix" values="0 0 0 0 0 0 0 0 0 0 0 0 0 0 0 0 0 0 127 0" result="hardAlpha"/>
    <feOffset dy="3"/>
    <feGaussianBlur stdDeviation="4"/>
    <feComposite in2="hardAlpha" operator="out"/>
    <feColorMatrix type="matrix" values="0 0 0 0 0.0866667 0 0 0 0 0.242188 0 0 0 0 0.65 0 0 0 0.44 0"/>
    <feBlend mode="normal" in2="BackgroundImageFix" result="effect1_dropShadow_0_1"/>
    <feBlend mode="normal" in="SourceGraphic" in2="effect1_dropShadow_0_1" result="shape"/>
    </filter>
    <clipPath id="clip0_0_1">
    <rect width="705" height="550" fill="white"/>
    </clipPath>
    </defs>
</svg>