<svg width="45" height="48" viewBox="0 0 45 48" fill="none" xmlns="http://www.w3.org/2000/svg">
    <path fill-rule="evenodd" clip-rule="evenodd" d="M1.0125 8.91172L8.92343 13.4769L16.4261 9.14501C20.2914 6.91278 24.7135 6.91278 28.5788 9.14501L36.0814 13.4769L43.9924 8.91172L34.0719 3.18531C26.7124 -1.06177 18.2925 -1.06177 10.933 3.18531L1.0125 8.91172Z" fill="#FFFFFF"/>
    <path fill-rule="evenodd" clip-rule="evenodd" d="M45.0006 10.6723L37.1003 15.2322V23.896C37.1003 28.3552 34.8893 32.1887 31.024 34.4157L23.5213 38.7476V47.878L33.4312 42.1569C40.7907 37.9098 45.0006 30.614 45.0006 22.1198V10.667V10.6723Z" fill="#FFFFFF"/>
    <path fill-rule="evenodd" clip-rule="evenodd" d="M21.4793 47.7291V38.7525L13.9767 34.4206C10.1113 32.1883 7.90562 28.3601 7.90562 23.9009V15.2371L0 10.6719V21.9709C0 30.4704 4.20997 37.761 11.5695 42.008L21.4793 47.7291Z" fill="#FFFFFF"/>
    <path fill-rule="evenodd" clip-rule="evenodd" d="M15.9021 19.7598C14.5818 19.7598 13.5108 20.8308 13.5108 22.1511C13.5108 23.4713 14.5818 24.5424 15.9021 24.5424C17.2223 24.5424 18.2934 23.4713 18.2934 22.1511C18.2934 20.8308 17.2223 19.7598 15.9021 19.7598Z" fill="#FFFFFF"/>
    <path fill-rule="evenodd" clip-rule="evenodd" d="M22.5027 19.7598C21.1825 19.7598 20.1114 20.8308 20.1114 22.1511C20.1114 23.4713 21.1825 24.5424 22.5027 24.5424C23.823 24.5424 24.894 23.4713 24.894 22.1511C24.894 20.8308 23.823 19.7598 22.5027 19.7598Z" fill="#FFFFFF"/>
    <path fill-rule="evenodd" clip-rule="evenodd" d="M29.1001 19.7598C27.7798 19.7598 26.7088 20.8308 26.7088 22.1511C26.7088 23.4713 27.7798 24.5424 29.1001 24.5424C30.4204 24.5424 31.4914 23.4713 31.4914 22.1511C31.4914 20.8308 30.4204 19.7598 29.1001 19.7598Z" fill="#FFFFFF"/>
</svg>